Oxanium-Regular.ufo
<glyph name="numbersign" format="2">
  <advance width="670"/>
  <unicode hex="0023"/>
  <outline>
    <contour>
      <point x="50" y="190" type="line"/>
      <point x="50" y="260" type="line"/>
      <point x="184" y="260" type="line"/>
      <point x="184" y="430" type="line"/>
      <point x="50" y="430" type="line"/>
      <point x="50" y="500" type="line"/>
      <point x="184" y="500" type="line"/>
      <point x="184" y="690" type="line"/>
      <point x="258" y="690" type="line"/>
      <point x="258" y="500" type="line"/>
      <point x="412" y="500" type="line"/>
      <point x="412" y="690" type="line"/>
      <point x="486" y="690" type="line"/>
      <point x="486" y="500" type="line"/>
      <point x="620" y="500" type="line"/>
      <point x="620" y="430" type="line"/>
      <point x="486" y="430" type="line"/>
      <point x="486" y="260" type="line"/>
      <point x="620" y="260" type="line"/>
      <point x="620" y="190" type="line"/>
      <point x="486" y="190" type="line"/>
      <point x="486" y="0" type="line"/>
      <point x="412" y="0" type="line"/>
      <point x="412" y="190" type="line"/>
      <point x="258" y="190" type="line"/>
      <point x="258" y="0" type="line"/>
      <point x="184" y="0" type="line"/>
      <point x="184" y="190" type="line"/>
    </contour>
    <contour>
      <point x="258" y="260" type="line"/>
      <point x="412" y="260" type="line"/>
      <point x="412" y="430" type="line"/>
      <point x="258" y="430" type="line"/>
    </contour>
  </outline>
</glyph>
<glyph name="quotesingle" format="2">
  <advance width="214"/>
  <unicode hex="0027"/>
  <outline>
    <contour>
      <point x="70" y="490" type="line"/>
      <point x="70" y="740" type="line"/>
      <point x="144" y="740" type="line"/>
      <point x="144" y="490" type="line"/>
    </contour>
  </outline>
</glyph>
<glyph name="parenleft" format="2">
  <advance width="310"/>
  <unicode hex="0028"/>
  <outline>
    <contour>
      <point x="70" y="557"/>
      <point x="230" y="770" type="qcurve"/>
      <point x="290" y="724" type="line"/>
      <point x="153" y="533"/>
      <point x="153" y="47"/>
      <point x="290" y="-144" type="qcurve"/>
      <point x="230" y="-190" type="line"/>
      <point x="70" y="23"/>
    </contour>
  </outline>
</glyph>
<glyph name="comma" format="2">
  <advance width="260"/>
  <unicode hex="002C"/>
  <outline>
    <contour>
      <point x="32" y="-125" type="line"/>
      <point x="83" y="110" type="line"/>
      <point x="173" y="110" type="line"/>
      <point x="182" y="96" type="line"/>
      <point x="92" y="-140" type="line"/>
    </contour>
  </outline>
</glyph>
<glyph name="slash" format="2">
  <advance width="390"/>
  <unicode hex="002F"/>
  <outline>
    <contour>
      <point x="20" y="-25" type="line"/>
      <point x="301" y="740" type="line"/>
      <point x="370" y="715" type="line"/>
      <point x="89" y="-50" type="line"/>
    </contour>
  </outline>
</glyph>
<glyph name="three" format="2">
  <advance width="578"/>
  <unicode hex="0033"/>
  <outline>
    <contour>
      <point x="74" y="35" type="line"/>
      <point x="74" y="76" type="line"/>
      <point x="362" y="76" type="line" smooth="yes"/>
      <point x="430" y="76"/>
      <point x="430" y="144" type="qcurve" smooth="yes"/>
      <point x="430" y="256" type="line" smooth="yes"/>
      <point x="430" y="324"/>
      <point x="362" y="324" type="qcurve" smooth="yes"/>
      <point x="148" y="324" type="line"/>
      <point x="148" y="400" type="line"/>
      <point x="362" y="400" type="line" smooth="yes"/>
      <point x="430" y="400"/>
      <point x="430" y="468" type="qcurve" smooth="yes"/>
      <point x="430" y="546" type="line" smooth="yes"/>
      <point x="430" y="614"/>
      <point x="362" y="614" type="qcurve" smooth="yes"/>
      <point x="84" y="614" type="line"/>
      <point x="84" y="655" type="line"/>
      <point x="129" y="690" type="line"/>
      <point x="361" y="690" type="line" smooth="yes"/>
      <point x="514" y="690"/>
      <point x="514" y="537" type="qcurve" smooth="yes"/>
      <point x="514" y="464" type="line" smooth="yes"/>
      <point x="514" y="424"/>
      <point x="489" y="399" type="qcurve" smooth="yes"/>
      <point x="454" y="364" type="line"/>
      <point x="489" y="329" type="line" smooth="yes"/>
      <point x="514" y="304"/>
      <point x="514" y="264" type="qcurve" smooth="yes"/>
      <point x="514" y="153" type="line" smooth="yes"/>
      <point x="514" y="0"/>
      <point x="361" y="0" type="qcurve" smooth="yes"/>
      <point x="119" y="0" type="line"/>
    </contour>
  </outline>
</glyph>
<glyph name="four" format="2">
  <advance width="578"/>
  <unicode hex="0034"/>
  <outline>
    <contour>
      <point x="64" y="129" type="line"/>
      <point x="64" y="199" type="line"/>
      <point x="295" y="690" type="line"/>
      <point x="365" y="690" type="line"/>
      <point x="376" y="670" type="line"/>
      <point x="157" y="205" type="line"/>
      <point x="430" y="205" type="line"/>
      <point x="430" y="430" type="line"/>
      <point x="514" y="430" type="line"/>
      <point x="514" y="0" type="line"/>
      <point x="430" y="0" type="line"/>
      <point x="430" y="129" type="line"/>
    </contour>
  </outline>
</glyph>
<glyph name="nine" format="2">
  <advance width="578"/>
  <unicode hex="0039"/>
  <outline>
    <contour>
      <point x="64" y="433" type="qcurve" smooth="yes"/>
      <point x="64" y="537" type="line" smooth="yes"/>
      <point x="64" y="690"/>
      <point x="217" y="690" type="qcurve" smooth="yes"/>
      <point x="361" y="690" type="line" smooth="yes"/>
      <point x="514" y="690"/>
      <point x="514" y="537" type="qcurve" smooth="yes"/>
      <point x="514" y="184" type="line" smooth="yes"/>
      <point x="514" y="0"/>
      <point x="330" y="0" type="qcurve" smooth="yes"/>
      <point x="139" y="0" type="line"/>
      <point x="94" y="35" type="line"/>
      <point x="94" y="76" type="line"/>
      <point x="334" y="76" type="line" smooth="yes"/>
      <point x="430" y="76"/>
      <point x="430" y="172" type="qcurve" smooth="yes"/>
      <point x="430" y="280" type="line"/>
      <point x="217" y="280" type="line" smooth="yes"/>
      <point x="64" y="280"/>
    </contour>
    <contour>
      <point x="148" y="424" type="line" smooth="yes"/>
      <point x="148" y="356"/>
      <point x="216" y="356" type="qcurve" smooth="yes"/>
      <point x="430" y="356" type="line"/>
      <point x="430" y="546" type="line" smooth="yes"/>
      <point x="430" y="614"/>
      <point x="362" y="614" type="qcurve" smooth="yes"/>
      <point x="216" y="614" type="line" smooth="yes"/>
      <point x="148" y="614"/>
      <point x="148" y="546" type="qcurve" smooth="yes"/>
    </contour>
  </outline>
</glyph>
<glyph name="equal" format="2">
  <advance width="578"/>
  <unicode hex="003D"/>
  <outline>
    <contour>
      <point x="64" y="190" type="line"/>
      <point x="64" y="260" type="line"/>
      <point x="514" y="260" type="line"/>
      <point x="514" y="190" type="line"/>
    </contour>
    <contour>
      <point x="64" y="410" type="line"/>
      <point x="64" y="480" type="line"/>
      <point x="514" y="480" type="line"/>
      <point x="514" y="410" type="line"/>
    </contour>
  </outline>
</glyph>
<glyph name="greater" format="2">
  <advance width="578"/>
  <unicode hex="003E"/>
  <outline>
    <contour>
      <point x="64" y="158" type="line"/>
      <point x="442" y="335" type="line"/>
      <point x="64" y="512" type="line"/>
      <point x="94" y="575" type="line"/>
      <point x="514" y="374" type="line"/>
      <point x="514" y="296" type="line"/>
      <point x="94" y="95" type="line"/>
    </contour>
  </outline>
</glyph>
<glyph name="at" format="2">
  <advance width="800"/>
  <unicode hex="0040"/>
  <outline>
    <contour>
      <point x="90" y="7" type="qcurve" smooth="yes"/>
      <point x="90" y="543" type="line" smooth="yes"/>
      <point x="90" y="690"/>
      <point x="237" y="690" type="qcurve" smooth="yes"/>
      <point x="710" y="690" type="line"/>
      <point x="710" y="60" type="line"/>
      <point x="460" y="60" type="line" smooth="yes"/>
      <point x="310" y="60"/>
      <point x="310" y="210" type="qcurve" smooth="yes"/>
      <point x="310" y="340" type="line" smooth="yes"/>
      <point x="310" y="490"/>
      <point x="460" y="490" type="qcurve" smooth="yes"/>
      <point x="636" y="490" type="line"/>
      <point x="636" y="626" type="line"/>
      <point x="237" y="626" type="line" smooth="yes"/>
      <point x="164" y="626"/>
      <point x="164" y="553" type="qcurve" smooth="yes"/>
      <point x="164" y="-3" type="line" smooth="yes"/>
      <point x="164" y="-76"/>
      <point x="237" y="-76" type="qcurve" smooth="yes"/>
      <point x="690" y="-76" type="line"/>
      <point x="690" y="-110" type="line"/>
      <point x="650" y="-140" type="line"/>
      <point x="237" y="-140" type="line" smooth="yes"/>
      <point x="90" y="-140"/>
    </contour>
    <contour>
      <point x="390" y="200" type="line" smooth="yes"/>
      <point x="390" y="130"/>
      <point x="460" y="130" type="qcurve" smooth="yes"/>
      <point x="630" y="130" type="line"/>
      <point x="630" y="420" type="line"/>
      <point x="460" y="420" type="line" smooth="yes"/>
      <point x="390" y="420"/>
      <point x="390" y="350" type="qcurve" smooth="yes"/>
    </contour>
  </outline>
</glyph>
<glyph name="B" format="2">
  <advance width="644"/>
  <unicode hex="0042"/>
  <outline>
    <contour>
      <point x="90" y="0" type="line"/>
      <point x="90" y="690" type="line"/>
      <point x="407" y="690" type="line" smooth="yes"/>
      <point x="560" y="690"/>
      <point x="560" y="537" type="qcurve" smooth="yes"/>
      <point x="560" y="468" type="line" smooth="yes"/>
      <point x="560" y="434"/>
      <point x="540" y="410" type="qcurve" smooth="yes"/>
      <point x="505" y="368" type="line"/>
      <point x="547" y="333" type="line" smooth="yes"/>
      <point x="580" y="306"/>
      <point x="580" y="253" type="qcurve" smooth="yes"/>
      <point x="580" y="153" type="line" smooth="yes"/>
      <point x="580" y="0"/>
      <point x="427" y="0" type="qcurve" smooth="yes"/>
    </contour>
    <contour>
      <point x="174" y="76" type="line"/>
      <point x="428" y="76" type="line" smooth="yes"/>
      <point x="496" y="76"/>
      <point x="496" y="144" type="qcurve" smooth="yes"/>
      <point x="496" y="256" type="line" smooth="yes"/>
      <point x="496" y="324"/>
      <point x="428" y="324" type="qcurve" smooth="yes"/>
      <point x="174" y="324" type="line"/>
    </contour>
    <contour>
      <point x="174" y="400" type="line"/>
      <point x="408" y="400" type="line" smooth="yes"/>
      <point x="476" y="400"/>
      <point x="476" y="468" type="qcurve" smooth="yes"/>
      <point x="476" y="546" type="line" smooth="yes"/>
      <point x="476" y="614"/>
      <point x="408" y="614" type="qcurve" smooth="yes"/>
      <point x="174" y="614" type="line"/>
    </contour>
  </outline>
</glyph>
<glyph name="C" format="2">
  <advance width="610"/>
  <unicode hex="0043"/>
  <outline>
    <contour>
      <point x="80" y="153" type="qcurve" smooth="yes"/>
      <point x="80" y="537" type="line" smooth="yes"/>
      <point x="80" y="690"/>
      <point x="233" y="690" type="qcurve" smooth="yes"/>
      <point x="515" y="690" type="line"/>
      <point x="560" y="655" type="line"/>
      <point x="560" y="614" type="line"/>
      <point x="232" y="614" type="line" smooth="yes"/>
      <point x="164" y="614"/>
      <point x="164" y="546" type="qcurve" smooth="yes"/>
      <point x="164" y="144" type="line" smooth="yes"/>
      <point x="164" y="76"/>
      <point x="232" y="76" type="qcurve" smooth="yes"/>
      <point x="560" y="76" type="line"/>
      <point x="560" y="35" type="line"/>
      <point x="515" y="0" type="line"/>
      <point x="233" y="0" type="line" smooth="yes"/>
      <point x="80" y="0"/>
    </contour>
  </outline>
</glyph>
<glyph name="E" format="2">
  <advance width="590"/>
  <unicode hex="0045"/>
  <outline>
    <contour>
      <point x="90" y="0" type="line"/>
      <point x="90" y="690" type="line"/>
      <point x="540" y="690" type="line"/>
      <point x="540" y="614" type="line"/>
      <point x="174" y="614" type="line"/>
      <point x="174" y="400" type="line"/>
      <point x="510" y="400" type="line"/>
      <point x="510" y="324" type="line"/>
      <point x="174" y="324" type="line"/>
      <point x="174" y="76" type="line"/>
      <point x="540" y="76" type="line"/>
      <point x="540" y="0" type="line"/>
    </contour>
  </outline>
</glyph>
<glyph name="F" format="2">
  <advance width="570"/>
  <unicode hex="0046"/>
  <outline>
    <contour>
      <point x="90" y="0" type="line"/>
      <point x="90" y="690" type="line"/>
      <point x="540" y="690" type="line"/>
      <point x="540" y="614" type="line"/>
      <point x="174" y="614" type="line"/>
      <point x="174" y="370" type="line"/>
      <point x="510" y="370" type="line"/>
      <point x="510" y="294" type="line"/>
      <point x="174" y="294" type="line"/>
      <point x="174" y="0" type="line"/>
    </contour>
  </outline>
</glyph>
<glyph name="G" format="2">
  <advance width="670"/>
  <unicode hex="0047"/>
  <outline>
    <contour>
      <point x="80" y="153" type="qcurve" smooth="yes"/>
      <point x="80" y="537" type="line" smooth="yes"/>
      <point x="80" y="690"/>
      <point x="233" y="690" type="qcurve" smooth="yes"/>
      <point x="535" y="690" type="line"/>
      <point x="580" y="655" type="line"/>
      <point x="580" y="614" type="line"/>
      <point x="232" y="614" type="line" smooth="yes"/>
      <point x="164" y="614"/>
      <point x="164" y="546" type="qcurve" smooth="yes"/>
      <point x="164" y="144" type="line" smooth="yes"/>
      <point x="164" y="76"/>
      <point x="232" y="76" type="qcurve" smooth="yes"/>
      <point x="516" y="76" type="line"/>
      <point x="516" y="324" type="line"/>
      <point x="346" y="324" type="line"/>
      <point x="346" y="400" type="line"/>
      <point x="600" y="400" type="line"/>
      <point x="600" y="0" type="line"/>
      <point x="233" y="0" type="line" smooth="yes"/>
      <point x="80" y="0"/>
    </contour>
  </outline>
</glyph>
<glyph name="H" format="2">
  <advance width="700"/>
  <unicode hex="0048"/>
  <outline>
    <contour>
      <point x="90" y="0" type="line"/>
      <point x="90" y="690" type="line"/>
      <point x="174" y="690" type="line"/>
      <point x="174" y="400" type="line"/>
      <point x="526" y="400" type="line"/>
      <point x="526" y="690" type="line"/>
      <point x="610" y="690" type="line"/>
      <point x="610" y="0" type="line"/>
      <point x="526" y="0" type="line"/>
      <point x="526" y="324" type="line"/>
      <point x="174" y="324" type="line"/>
      <point x="174" y="0" type="line"/>
    </contour>
  </outline>
</glyph>
<glyph name="L" format="2">
  <advance width="534"/>
  <unicode hex="004C"/>
  <outline>
    <contour>
      <point x="90" y="0" type="line"/>
      <point x="90" y="690" type="line"/>
      <point x="174" y="690" type="line"/>
      <point x="174" y="76" type="line"/>
      <point x="510" y="76" type="line"/>
      <point x="510" y="0" type="line"/>
    </contour>
  </outline>
</glyph>
<glyph name="P" format="2">
  <advance width="630"/>
  <unicode hex="0050"/>
  <outline>
    <contour>
      <point x="90" y="0" type="line"/>
      <point x="90" y="690" type="line"/>
      <point x="417" y="690" type="line" smooth="yes"/>
      <point x="570" y="690"/>
      <point x="570" y="537" type="qcurve" smooth="yes"/>
      <point x="570" y="407" type="line" smooth="yes"/>
      <point x="570" y="254"/>
      <point x="417" y="254" type="qcurve" smooth="yes"/>
      <point x="174" y="254" type="line"/>
      <point x="174" y="0" type="line"/>
    </contour>
    <contour>
      <point x="174" y="330" type="line"/>
      <point x="418" y="330" type="line" smooth="yes"/>
      <point x="486" y="330"/>
      <point x="486" y="398" type="qcurve" smooth="yes"/>
      <point x="486" y="546" type="line" smooth="yes"/>
      <point x="486" y="614"/>
      <point x="418" y="614" type="qcurve" smooth="yes"/>
      <point x="174" y="614" type="line"/>
    </contour>
  </outline>
</glyph>
<glyph name="U" format="2">
  <advance width="688"/>
  <unicode hex="0055"/>
  <outline>
    <contour>
      <point x="84" y="153" type="qcurve" smooth="yes"/>
      <point x="84" y="690" type="line"/>
      <point x="168" y="690" type="line"/>
      <point x="168" y="144" type="line" smooth="yes"/>
      <point x="168" y="76"/>
      <point x="236" y="76" type="qcurve" smooth="yes"/>
      <point x="452" y="76" type="line" smooth="yes"/>
      <point x="520" y="76"/>
      <point x="520" y="144" type="qcurve" smooth="yes"/>
      <point x="520" y="690" type="line"/>
      <point x="604" y="690" type="line"/>
      <point x="604" y="153" type="line" smooth="yes"/>
      <point x="604" y="0"/>
      <point x="451" y="0" type="qcurve" smooth="yes"/>
      <point x="237" y="0" type="line" smooth="yes"/>
      <point x="84" y="0"/>
    </contour>
  </outline>
</glyph>
<glyph name="W" format="2">
  <advance width="920"/>
  <unicode hex="0057"/>
  <outline>
    <contour>
      <point x="30" y="672" type="line"/>
      <point x="43" y="690" type="line"/>
      <point x="111" y="690" type="line"/>
      <point x="253" y="76" type="line"/>
      <point x="268" y="76" type="line"/>
      <point x="419" y="614" type="line"/>
      <point x="501" y="614" type="line"/>
      <point x="652" y="76" type="line"/>
      <point x="667" y="76" type="line"/>
      <point x="809" y="690" type="line"/>
      <point x="877" y="690" type="line"/>
      <point x="890" y="672" type="line"/>
      <point x="731" y="0" type="line"/>
      <point x="591" y="0" type="line"/>
      <point x="460" y="479" type="line"/>
      <point x="329" y="0" type="line"/>
      <point x="189" y="0" type="line"/>
    </contour>
  </outline>
</glyph>
<glyph name="X" format="2">
  <advance width="610"/>
  <unicode hex="0058"/>
  <outline>
    <contour>
      <point x="30" y="19" type="line"/>
      <point x="258" y="355" type="line"/>
      <point x="43" y="671" type="line"/>
      <point x="52" y="690" type="line"/>
      <point x="125" y="690" type="line"/>
      <point x="305" y="420" type="line"/>
      <point x="485" y="690" type="line"/>
      <point x="558" y="690" type="line"/>
      <point x="567" y="671" type="line"/>
      <point x="352" y="355" type="line"/>
      <point x="580" y="19" type="line"/>
      <point x="571" y="0" type="line"/>
      <point x="498" y="0" type="line"/>
      <point x="305" y="290" type="line"/>
      <point x="112" y="0" type="line"/>
      <point x="39" y="0" type="line"/>
    </contour>
  </outline>
</glyph>
<glyph name="asciicircum" format="2">
  <advance width="540"/>
  <unicode hex="005E"/>
  <outline>
    <contour>
      <point x="40" y="345" type="line"/>
      <point x="231" y="690" type="line"/>
      <point x="309" y="690" type="line"/>
      <point x="500" y="345" type="line"/>
      <point x="437" y="310" type="line"/>
      <point x="270" y="615" type="line"/>
      <point x="103" y="310" type="line"/>
    </contour>
  </outline>
</glyph>
<glyph name="a" format="2">
  <advance width="542"/>
  <unicode hex="0061"/>
  <outline>
    <contour>
      <point x="203" y="0" type="line" smooth="yes"/>
      <point x="52" y="0"/>
      <point x="52" y="302"/>
      <point x="203" y="302" type="qcurve" smooth="yes"/>
      <point x="386" y="302" type="line"/>
      <point x="386" y="380" type="line" smooth="yes"/>
      <point x="386" y="450"/>
      <point x="316" y="450" type="qcurve" smooth="yes"/>
      <point x="102" y="450" type="line"/>
      <point x="102" y="490" type="line"/>
      <point x="142" y="520" type="line"/>
      <point x="316" y="520" type="line" smooth="yes"/>
      <point x="466" y="520"/>
      <point x="466" y="370" type="qcurve" smooth="yes"/>
      <point x="466" y="0" type="line"/>
    </contour>
    <contour>
      <point x="132" y="140" type="line" smooth="yes"/>
      <point x="132" y="70"/>
      <point x="202" y="70" type="qcurve" smooth="yes"/>
      <point x="386" y="70" type="line"/>
      <point x="386" y="232" type="line"/>
      <point x="202" y="232" type="line" smooth="yes"/>
      <point x="132" y="232"/>
      <point x="132" y="162" type="qcurve" smooth="yes"/>
    </contour>
  </outline>
</glyph>
<glyph name="b" format="2">
  <advance width="582"/>
  <unicode hex="0062"/>
  <outline>
    <contour>
      <point x="80" y="0" type="line"/>
      <point x="80" y="740" type="line"/>
      <point x="160" y="740" type="line"/>
      <point x="160" y="520" type="line"/>
      <point x="360" y="520" type="line" smooth="yes"/>
      <point x="510" y="520"/>
      <point x="510" y="370" type="qcurve" smooth="yes"/>
      <point x="510" y="150" type="line" smooth="yes"/>
      <point x="510" y="0"/>
      <point x="360" y="0" type="qcurve" smooth="yes"/>
    </contour>
    <contour>
      <point x="160" y="70" type="line"/>
      <point x="360" y="70" type="line" smooth="yes"/>
      <point x="430" y="70"/>
      <point x="430" y="140" type="qcurve" smooth="yes"/>
      <point x="430" y="380" type="line" smooth="yes"/>
      <point x="430" y="450"/>
      <point x="360" y="450" type="qcurve" smooth="yes"/>
      <point x="160" y="450" type="line"/>
    </contour>
  </outline>
</glyph>
<glyph name="c" format="2">
  <advance width="504"/>
  <unicode hex="0063"/>
  <outline>
    <contour>
      <point x="72" y="150" type="qcurve" smooth="yes"/>
      <point x="72" y="370" type="line" smooth="yes"/>
      <point x="72" y="520"/>
      <point x="222" y="520" type="qcurve" smooth="yes"/>
      <point x="418" y="520" type="line"/>
      <point x="458" y="490" type="line"/>
      <point x="458" y="450" type="line"/>
      <point x="222" y="450" type="line" smooth="yes"/>
      <point x="152" y="450"/>
      <point x="152" y="380" type="qcurve" smooth="yes"/>
      <point x="152" y="140" type="line" smooth="yes"/>
      <point x="152" y="70"/>
      <point x="222" y="70" type="qcurve" smooth="yes"/>
      <point x="458" y="70" type="line"/>
      <point x="458" y="30" type="line"/>
      <point x="418" y="0" type="line"/>
      <point x="222" y="0" type="line" smooth="yes"/>
      <point x="72" y="0"/>
    </contour>
  </outline>
</glyph>
<glyph name="j" format="2">
  <advance width="240"/>
  <unicode hex="006A"/>
  <outline>
    <contour>
      <point x="-8" y="-138" type="line"/>
      <point x="80" y="-134"/>
      <point x="80" y="-48" type="qcurve" smooth="yes"/>
      <point x="80" y="520" type="line"/>
      <point x="160" y="520" type="line"/>
      <point x="160" y="-40" type="line" smooth="yes"/>
      <point x="160" y="-208"/>
      <point x="-8" y="-208" type="qcurve"/>
    </contour>
    <contour>
      <point x="78" y="614" type="line"/>
      <point x="78" y="706" type="line"/>
      <point x="162" y="706" type="line"/>
      <point x="162" y="614" type="line"/>
    </contour>
  </outline>
</glyph>
<glyph name="l" format="2">
  <advance width="260"/>
  <unicode hex="006C"/>
  <outline>
    <contour>
      <point x="76" y="142" type="qcurve" smooth="yes"/>
      <point x="76" y="740" type="line"/>
      <point x="156" y="740" type="line"/>
      <point x="156" y="134" type="line" smooth="yes"/>
      <point x="156" y="66"/>
      <point x="226" y="62" type="qcurve"/>
      <point x="226" y="-8" type="line"/>
      <point x="76" y="-8"/>
    </contour>
  </outline>
</glyph>
<glyph name="m" format="2">
  <advance width="896"/>
  <unicode hex="006D"/>
  <outline>
    <contour>
      <point x="80" y="0" type="line"/>
      <point x="80" y="520" type="line"/>
      <point x="670" y="520" type="line" smooth="yes"/>
      <point x="820" y="520"/>
      <point x="820" y="370" type="qcurve" smooth="yes"/>
      <point x="820" y="0" type="line"/>
      <point x="740" y="0" type="line"/>
      <point x="740" y="380" type="line" smooth="yes"/>
      <point x="740" y="450"/>
      <point x="670" y="450" type="qcurve" smooth="yes"/>
      <point x="490" y="450" type="line"/>
      <point x="490" y="0" type="line"/>
      <point x="410" y="0" type="line"/>
      <point x="410" y="450" type="line"/>
      <point x="160" y="450" type="line"/>
      <point x="160" y="0" type="line"/>
    </contour>
  </outline>
</glyph>
<glyph name="n" format="2">
  <advance width="586"/>
  <unicode hex="006E"/>
  <outline>
    <contour>
      <point x="80" y="0" type="line"/>
      <point x="80" y="520" type="line"/>
      <point x="360" y="520" type="line" smooth="yes"/>
      <point x="510" y="520"/>
      <point x="510" y="370" type="qcurve" smooth="yes"/>
      <point x="510" y="0" type="line"/>
      <point x="430" y="0" type="line"/>
      <point x="430" y="380" type="line" smooth="yes"/>
      <point x="430" y="450"/>
      <point x="360" y="450" type="qcurve" smooth="yes"/>
      <point x="160" y="450" type="line"/>
      <point x="160" y="0" type="line"/>
    </contour>
  </outline>
</glyph>
<glyph name="o" format="2">
  <advance width="584"/>
  <unicode hex="006F"/>
  <outline>
    <contour>
      <point x="72" y="150" type="qcurve" smooth="yes"/>
      <point x="72" y="370" type="line" smooth="yes"/>
      <point x="72" y="520"/>
      <point x="222" y="520" type="qcurve" smooth="yes"/>
      <point x="362" y="520" type="line" smooth="yes"/>
      <point x="512" y="520"/>
      <point x="512" y="370" type="qcurve" smooth="yes"/>
      <point x="512" y="150" type="line" smooth="yes"/>
      <point x="512" y="0"/>
      <point x="362" y="0" type="qcurve" smooth="yes"/>
      <point x="222" y="0" type="line" smooth="yes"/>
      <point x="72" y="0"/>
    </contour>
    <contour>
      <point x="152" y="140" type="line" smooth="yes"/>
      <point x="152" y="70"/>
      <point x="222" y="70" type="qcurve" smooth="yes"/>
      <point x="362" y="70" type="line" smooth="yes"/>
      <point x="432" y="70"/>
      <point x="432" y="140" type="qcurve" smooth="yes"/>
      <point x="432" y="380" type="line" smooth="yes"/>
      <point x="432" y="450"/>
      <point x="362" y="450" type="qcurve" smooth="yes"/>
      <point x="222" y="450" type="line" smooth="yes"/>
      <point x="152" y="450"/>
      <point x="152" y="380" type="qcurve" smooth="yes"/>
    </contour>
  </outline>
</glyph>
<glyph name="r" format="2">
  <advance width="372"/>
  <unicode hex="0072"/>
  <outline>
    <contour>
      <point x="76" y="0" type="line"/>
      <point x="76" y="460" type="line"/>
      <point x="111" y="520"/>
      <point x="206" y="520" type="qcurve" smooth="yes"/>
      <point x="306" y="520" type="line"/>
      <point x="346" y="490" type="line"/>
      <point x="346" y="450" type="line"/>
      <point x="206" y="450" type="line" smooth="yes"/>
      <point x="172" y="450"/>
      <point x="156" y="432" type="qcurve"/>
      <point x="156" y="0" type="line"/>
    </contour>
  </outline>
</glyph>
<glyph name="s" format="2">
  <advance width="500"/>
  <unicode hex="0073"/>
  <outline>
    <contour>
      <point x="60" y="30" type="line"/>
      <point x="60" y="70" type="line"/>
      <point x="290" y="70" type="line" smooth="yes"/>
      <point x="360" y="70"/>
      <point x="360" y="140" type="qcurve" smooth="yes"/>
      <point x="360" y="210"/>
      <point x="300" y="220" type="qcurve" smooth="yes"/>
      <point x="180" y="240" type="line" smooth="yes"/>
      <point x="60" y="260"/>
      <point x="60" y="372" type="qcurve" smooth="yes"/>
      <point x="60" y="520"/>
      <point x="210" y="520" type="qcurve" smooth="yes"/>
      <point x="376" y="520" type="line"/>
      <point x="416" y="490" type="line"/>
      <point x="416" y="450" type="line"/>
      <point x="210" y="450" type="line" smooth="yes"/>
      <point x="140" y="450"/>
      <point x="140" y="380" type="qcurve" smooth="yes"/>
      <point x="140" y="320"/>
      <point x="200" y="310" type="qcurve" smooth="yes"/>
      <point x="320" y="290" type="line" smooth="yes"/>
      <point x="440" y="270"/>
      <point x="440" y="148" type="qcurve" smooth="yes"/>
      <point x="440" y="0"/>
      <point x="290" y="0" type="qcurve" smooth="yes"/>
      <point x="100" y="0" type="line"/>
    </contour>
  </outline>
</glyph>
<glyph name="u" format="2">
  <advance width="586"/>
  <unicode hex="0075"/>
  <outline>
    <contour>
      <point x="76" y="150" type="qcurve" smooth="yes"/>
      <point x="76" y="520" type="line"/>
      <point x="156" y="520" type="line"/>
      <point x="156" y="140" type="line" smooth="yes"/>
      <point x="156" y="70"/>
      <point x="226" y="70" type="qcurve" smooth="yes"/>
      <point x="426" y="70" type="line"/>
      <point x="426" y="520" type="line"/>
      <point x="506" y="520" type="line"/>
      <point x="506" y="0" type="line"/>
      <point x="226" y="0" type="line" smooth="yes"/>
      <point x="76" y="0"/>
    </contour>
  </outline>
</glyph>
<glyph name="w" format="2">
  <advance width="792"/>
  <unicode hex="0077"/>
  <outline>
    <contour>
      <point x="24" y="506" type="line"/>
      <point x="34" y="520" type="line"/>
      <point x="101" y="520" type="line"/>
      <point x="206" y="70" type="line"/>
      <point x="221" y="70" type="line"/>
      <point x="346" y="520" type="line"/>
      <point x="446" y="520" type="line"/>
      <point x="571" y="70" type="line"/>
      <point x="586" y="70" type="line"/>
      <point x="691" y="520" type="line"/>
      <point x="758" y="520" type="line"/>
      <point x="768" y="506" type="line"/>
      <point x="646" y="0" type="line"/>
      <point x="518" y="0" type="line"/>
      <point x="396" y="440" type="line"/>
      <point x="274" y="0" type="line"/>
      <point x="146" y="0" type="line"/>
    </contour>
  </outline>
</glyph>
<glyph name="x" format="2">
  <advance width="520"/>
  <unicode hex="0078"/>
  <outline>
    <contour>
      <point x="30" y="15" type="line"/>
      <point x="214" y="265" type="line"/>
      <point x="37" y="505" type="line"/>
      <point x="44" y="520" type="line"/>
      <point x="118" y="520" type="line"/>
      <point x="260" y="323" type="line"/>
      <point x="402" y="520" type="line"/>
      <point x="476" y="520" type="line"/>
      <point x="483" y="505" type="line"/>
      <point x="306" y="265" type="line"/>
      <point x="490" y="15" type="line"/>
      <point x="483" y="0" type="line"/>
      <point x="409" y="0" type="line"/>
      <point x="260" y="207" type="line"/>
      <point x="111" y="0" type="line"/>
      <point x="37" y="0" type="line"/>
    </contour>
  </outline>
</glyph>
<glyph name="y" format="2">
  <advance width="520"/>
  <unicode hex="0079"/>
  <outline>
    <contour>
      <point x="20" y="506" type="line"/>
      <point x="29" y="520" type="line"/>
      <point x="98" y="520" type="line"/>
      <point x="250" y="70" type="line"/>
      <point x="270" y="70" type="line"/>
      <point x="422" y="520" type="line"/>
      <point x="491" y="520" type="line"/>
      <point x="500" y="506" type="line"/>
      <point x="256" y="-200" type="line"/>
      <point x="187" y="-200" type="line"/>
      <point x="178" y="-186" type="line"/>
      <point x="245" y="0" type="line"/>
      <point x="195" y="0" type="line"/>
    </contour>
  </outline>
</glyph>
<glyph name="z" format="2">
  <advance width="510"/>
  <unicode hex="007A"/>
  <outline>
    <contour>
      <point x="50" y="0" type="line"/>
      <point x="50" y="62" type="line"/>
      <point x="349" y="450" type="line"/>
      <point x="60" y="450" type="line"/>
      <point x="60" y="520" type="line"/>
      <point x="450" y="520" type="line"/>
      <point x="450" y="458" type="line"/>
      <point x="151" y="70" type="line"/>
      <point x="460" y="70" type="line"/>
      <point x="460" y="0" type="line"/>
    </contour>
  </outline>
</glyph>
<glyph name="cent" format="2">
  <advance width="578"/>
  <unicode hex="00A2"/>
  <outline>
    <contour>
      <point x="94" y="150" type="qcurve" smooth="yes"/>
      <point x="94" y="370" type="line" smooth="yes"/>
      <point x="94" y="520"/>
      <point x="244" y="520" type="qcurve" smooth="yes"/>
      <point x="283" y="520" type="line"/>
      <point x="283" y="630" type="line"/>
      <point x="349" y="630" type="line"/>
      <point x="349" y="520" type="line"/>
      <point x="440" y="520" type="line"/>
      <point x="480" y="490" type="line"/>
      <point x="480" y="450" type="line"/>
      <point x="244" y="450" type="line" smooth="yes"/>
      <point x="174" y="450"/>
      <point x="174" y="380" type="qcurve" smooth="yes"/>
      <point x="174" y="140" type="line" smooth="yes"/>
      <point x="174" y="70"/>
      <point x="244" y="70" type="qcurve" smooth="yes"/>
      <point x="480" y="70" type="line"/>
      <point x="480" y="30" type="line"/>
      <point x="440" y="0" type="line"/>
      <point x="349" y="0" type="line"/>
      <point x="349" y="-110" type="line"/>
      <point x="283" y="-110" type="line"/>
      <point x="283" y="0" type="line"/>
      <point x="244" y="0" type="line" smooth="yes"/>
      <point x="94" y="0"/>
    </contour>
  </outline>
</glyph>
<glyph name="sterling" format="2">
  <advance width="578"/>
  <unicode hex="00A3"/>
  <outline>
    <contour>
      <point x="64" y="0" type="line"/>
      <point x="64" y="76" type="line"/>
      <point x="154" y="76" type="line"/>
      <point x="154" y="312" type="line"/>
      <point x="64" y="312" type="line"/>
      <point x="64" y="378" type="line"/>
      <point x="154" y="378" type="line"/>
      <point x="154" y="537" type="line" smooth="yes"/>
      <point x="154" y="690"/>
      <point x="307" y="690" type="qcurve" smooth="yes"/>
      <point x="459" y="690" type="line"/>
      <point x="504" y="655" type="line"/>
      <point x="504" y="614" type="line"/>
      <point x="306" y="614" type="line" smooth="yes"/>
      <point x="238" y="614"/>
      <point x="238" y="546" type="qcurve" smooth="yes"/>
      <point x="238" y="378" type="line"/>
      <point x="418" y="378" type="line"/>
      <point x="418" y="312" type="line"/>
      <point x="238" y="312" type="line"/>
      <point x="238" y="76" type="line"/>
      <point x="524" y="76" type="line"/>
      <point x="524" y="0" type="line"/>
    </contour>
  </outline>
</glyph>
<glyph name="currency" format="2">
  <advance width="578"/>
  <unicode hex="00A4"/>
  <outline>
    <contour>
      <point x="58" y="157" type="line"/>
      <point x="134" y="233" type="line"/>
      <point x="134" y="467" type="line"/>
      <point x="58" y="543" type="line"/>
      <point x="101" y="586" type="line"/>
      <point x="177" y="510" type="line"/>
      <point x="401" y="510" type="line"/>
      <point x="477" y="586" type="line"/>
      <point x="520" y="543" type="line"/>
      <point x="444" y="467" type="line"/>
      <point x="444" y="233" type="line"/>
      <point x="520" y="157" type="line"/>
      <point x="477" y="114" type="line"/>
      <point x="401" y="190" type="line"/>
      <point x="177" y="190" type="line"/>
      <point x="101" y="114" type="line"/>
    </contour>
    <contour>
      <point x="198" y="280" type="line" smooth="yes"/>
      <point x="198" y="248"/>
      <point x="230" y="248" type="qcurve" smooth="yes"/>
      <point x="348" y="248" type="line" smooth="yes"/>
      <point x="380" y="248"/>
      <point x="380" y="280" type="qcurve" smooth="yes"/>
      <point x="380" y="420" type="line" smooth="yes"/>
      <point x="380" y="452"/>
      <point x="348" y="452" type="qcurve" smooth="yes"/>
      <point x="230" y="452" type="line" smooth="yes"/>
      <point x="198" y="452"/>
      <point x="198" y="420" type="qcurve" smooth="yes"/>
    </contour>
  </outline>
</glyph>
<glyph name="ordfeminine" format="2">
  <advance width="400"/>
  <unicode hex="00AA"/>
  <outline>
    <contour>
      <point x="40" y="400" type="qcurve" smooth="yes"/>
      <point x="40" y="430" type="line" smooth="yes"/>
      <point x="40" y="530"/>
      <point x="140" y="530" type="qcurve" smooth="yes"/>
      <point x="286" y="530" type="line"/>
      <point x="286" y="600" type="line" smooth="yes"/>
      <point x="286" y="632"/>
      <point x="254" y="632" type="qcurve" smooth="yes"/>
      <point x="70" y="632" type="line"/>
      <point x="70" y="665" type="line"/>
      <point x="102" y="690" type="line"/>
      <point x="250" y="690" type="line" smooth="yes"/>
      <point x="350" y="690"/>
      <point x="350" y="590" type="qcurve" smooth="yes"/>
      <point x="350" y="300" type="line"/>
      <point x="140" y="300" type="line" smooth="yes"/>
      <point x="40" y="300"/>
    </contour>
    <contour>
      <point x="104" y="390" type="line" smooth="yes"/>
      <point x="104" y="358"/>
      <point x="136" y="358" type="qcurve" smooth="yes"/>
      <point x="286" y="358" type="line"/>
      <point x="286" y="472" type="line"/>
      <point x="136" y="472" type="line" smooth="yes"/>
      <point x="104" y="472"/>
      <point x="104" y="440" type="qcurve" smooth="yes"/>
    </contour>
  </outline>
</glyph>
<glyph name="logicalnot" format="2">
  <advance width="578"/>
  <unicode hex="00AC"/>
  <outline>
    <contour>
      <point x="64" y="350" type="line"/>
      <point x="64" y="420" type="line"/>
      <point x="514" y="420" type="line"/>
      <point x="514" y="150" type="line"/>
      <point x="440" y="150" type="line"/>
      <point x="440" y="350" type="line"/>
    </contour>
  </outline>
</glyph>
<glyph name="registered" format="2">
  <advance width="840"/>
  <unicode hex="00AE"/>
  <outline>
    <contour>
      <point x="80" y="98" type="qcurve" smooth="yes"/>
      <point x="80" y="592" type="line" smooth="yes"/>
      <point x="80" y="690"/>
      <point x="178" y="690" type="qcurve" smooth="yes"/>
      <point x="662" y="690" type="line" smooth="yes"/>
      <point x="760" y="690"/>
      <point x="760" y="592" type="qcurve" smooth="yes"/>
      <point x="760" y="98" type="line" smooth="yes"/>
      <point x="760" y="0"/>
      <point x="662" y="0" type="qcurve" smooth="yes"/>
      <point x="178" y="0" type="line" smooth="yes"/>
      <point x="80" y="0"/>
    </contour>
    <contour>
      <point x="140" y="88" type="line" smooth="yes"/>
      <point x="140" y="54"/>
      <point x="174" y="54" type="qcurve" smooth="yes"/>
      <point x="666" y="54" type="line" smooth="yes"/>
      <point x="700" y="54"/>
      <point x="700" y="88" type="qcurve" smooth="yes"/>
      <point x="700" y="602" type="line" smooth="yes"/>
      <point x="700" y="636"/>
      <point x="666" y="636" type="qcurve" smooth="yes"/>
      <point x="174" y="636" type="line" smooth="yes"/>
      <point x="140" y="636"/>
      <point x="140" y="602" type="qcurve" smooth="yes"/>
    </contour>
    <contour>
      <point x="279" y="150" type="line"/>
      <point x="279" y="540" type="line"/>
      <point x="468" y="540" type="line" smooth="yes"/>
      <point x="568" y="540"/>
      <point x="568" y="440" type="qcurve" smooth="yes"/>
      <point x="568" y="395" type="line" smooth="yes"/>
      <point x="568" y="318"/>
      <point x="509" y="301" type="qcurve"/>
      <point x="578" y="165" type="line"/>
      <point x="570" y="150" type="line"/>
      <point x="516" y="150" type="line"/>
      <point x="442" y="295" type="line"/>
      <point x="343" y="295" type="line"/>
      <point x="343" y="150" type="line"/>
    </contour>
    <contour>
      <point x="343" y="353" type="line"/>
      <point x="472" y="353" type="line" smooth="yes"/>
      <point x="504" y="353"/>
      <point x="504" y="385" type="qcurve" smooth="yes"/>
      <point x="504" y="450" type="line" smooth="yes"/>
      <point x="504" y="482"/>
      <point x="472" y="482" type="qcurve" smooth="yes"/>
      <point x="343" y="482" type="line"/>
    </contour>
  </outline>
</glyph>
<glyph name="uni00B2" format="2">
  <advance width="360"/>
  <unicode hex="00B2"/>
  <outline>
    <contour>
      <point x="40" y="280" type="line"/>
      <point x="40" y="403" type="line" smooth="yes"/>
      <point x="40" y="484"/>
      <point x="115" y="499" type="qcurve" smooth="yes"/>
      <point x="225" y="521" type="line" smooth="yes"/>
      <point x="256" y="527"/>
      <point x="256" y="557" type="qcurve" smooth="yes"/>
      <point x="256" y="600" type="line" smooth="yes"/>
      <point x="256" y="632"/>
      <point x="224" y="632" type="qcurve" smooth="yes"/>
      <point x="52" y="632" type="line"/>
      <point x="52" y="665" type="line"/>
      <point x="84" y="690" type="line"/>
      <point x="220" y="690" type="line" smooth="yes"/>
      <point x="320" y="690"/>
      <point x="320" y="590" type="qcurve" smooth="yes"/>
      <point x="320" y="560" type="line" smooth="yes"/>
      <point x="320" y="479"/>
      <point x="245" y="464" type="qcurve" smooth="yes"/>
      <point x="135" y="442" type="line" smooth="yes"/>
      <point x="104" y="436"/>
      <point x="104" y="406" type="qcurve" smooth="yes"/>
      <point x="104" y="338" type="line"/>
      <point x="320" y="338" type="line"/>
      <point x="320" y="280" type="line"/>
    </contour>
  </outline>
</glyph>
<glyph name="mu" format="2">
  <advance width="586"/>
  <unicode hex="00B5"/>
  <outline>
    <contour>
      <point x="80" y="-200" type="line"/>
      <point x="80" y="520" type="line"/>
      <point x="160" y="520" type="line"/>
      <point x="160" y="70" type="line"/>
      <point x="360" y="70" type="line" smooth="yes"/>
      <point x="430" y="70"/>
      <point x="430" y="140" type="qcurve" smooth="yes"/>
      <point x="430" y="520" type="line"/>
      <point x="510" y="520" type="line"/>
      <point x="510" y="150" type="line" smooth="yes"/>
      <point x="510" y="0"/>
      <point x="360" y="0" type="qcurve" smooth="yes"/>
      <point x="160" y="0" type="line"/>
      <point x="160" y="-200" type="line"/>
    </contour>
  </outline>
</glyph>
<glyph name="uni00B9" format="2">
  <advance width="360"/>
  <unicode hex="00B9"/>
  <outline>
    <contour>
      <point x="58" y="280" type="line"/>
      <point x="58" y="338" type="line"/>
      <point x="159" y="338" type="line"/>
      <point x="159" y="632" type="line"/>
      <point x="79" y="632" type="line"/>
      <point x="79" y="665" type="line"/>
      <point x="111" y="690" type="line"/>
      <point x="223" y="690" type="line"/>
      <point x="223" y="338" type="line"/>
      <point x="314" y="338" type="line"/>
      <point x="314" y="280" type="line"/>
    </contour>
  </outline>
</glyph>
<glyph name="ordmasculine" format="2">
  <advance width="430"/>
  <unicode hex="00BA"/>
  <outline>
    <contour>
      <point x="50" y="400" type="qcurve" smooth="yes"/>
      <point x="50" y="590" type="line" smooth="yes"/>
      <point x="50" y="690"/>
      <point x="150" y="690" type="qcurve" smooth="yes"/>
      <point x="280" y="690" type="line" smooth="yes"/>
      <point x="380" y="690"/>
      <point x="380" y="590" type="qcurve" smooth="yes"/>
      <point x="380" y="400" type="line" smooth="yes"/>
      <point x="380" y="300"/>
      <point x="280" y="300" type="qcurve" smooth="yes"/>
      <point x="150" y="300" type="line" smooth="yes"/>
      <point x="50" y="300"/>
    </contour>
    <contour>
      <point x="114" y="390" type="line" smooth="yes"/>
      <point x="114" y="358"/>
      <point x="146" y="358" type="qcurve" smooth="yes"/>
      <point x="284" y="358" type="line" smooth="yes"/>
      <point x="316" y="358"/>
      <point x="316" y="390" type="qcurve" smooth="yes"/>
      <point x="316" y="600" type="line" smooth="yes"/>
      <point x="316" y="632"/>
      <point x="284" y="632" type="qcurve" smooth="yes"/>
      <point x="146" y="632" type="line" smooth="yes"/>
      <point x="114" y="632"/>
      <point x="114" y="600" type="qcurve" smooth="yes"/>
    </contour>
  </outline>
</glyph>
<glyph name="questiondown" format="2">
  <advance width="480"/>
  <unicode hex="00BF"/>
  <outline>
    <contour>
      <point x="50" y="-17" type="qcurve" smooth="yes"/>
      <point x="50" y="73" type="line" smooth="yes"/>
      <point x="50" y="226"/>
      <point x="203" y="226" type="qcurve" smooth="yes"/>
      <point x="245" y="226" type="line"/>
      <point x="245" y="310" type="line"/>
      <point x="330" y="310" type="line"/>
      <point x="330" y="150" type="line"/>
      <point x="202" y="150" type="line" smooth="yes"/>
      <point x="134" y="150"/>
      <point x="134" y="82" type="qcurve" smooth="yes"/>
      <point x="134" y="-26" type="line" smooth="yes"/>
      <point x="134" y="-94"/>
      <point x="202" y="-94" type="qcurve" smooth="yes"/>
      <point x="460" y="-94" type="line"/>
      <point x="460" y="-135" type="line"/>
      <point x="415" y="-170" type="line"/>
      <point x="203" y="-170" type="line" smooth="yes"/>
      <point x="50" y="-170"/>
    </contour>
    <contour>
      <point x="238" y="410" type="line"/>
      <point x="238" y="520" type="line"/>
      <point x="338" y="520" type="line"/>
      <point x="338" y="410" type="line"/>
    </contour>
  </outline>
</glyph>
<glyph name="AE" format="2">
  <advance width="890"/>
  <unicode hex="00C6"/>
  <outline>
    <contour>
      <point x="20" y="18" type="line"/>
      <point x="246" y="690" type="line"/>
      <point x="840" y="690" type="line"/>
      <point x="840" y="614" type="line"/>
      <point x="504" y="614" type="line"/>
      <point x="504" y="400" type="line"/>
      <point x="810" y="400" type="line"/>
      <point x="810" y="324" type="line"/>
      <point x="504" y="324" type="line"/>
      <point x="504" y="76" type="line"/>
      <point x="840" y="76" type="line"/>
      <point x="840" y="0" type="line"/>
      <point x="420" y="0" type="line"/>
      <point x="420" y="174" type="line"/>
      <point x="158" y="174" type="line"/>
      <point x="101" y="0" type="line"/>
      <point x="32" y="0" type="line"/>
    </contour>
    <contour>
      <point x="183" y="250" type="line"/>
      <point x="420" y="250" type="line"/>
      <point x="420" y="614" type="line"/>
      <point x="303" y="614" type="line"/>
    </contour>
  </outline>
</glyph>
<glyph name="multiply" format="2">
  <advance width="578"/>
  <unicode hex="00D7"/>
  <outline>
    <contour>
      <point x="84" y="180" type="line"/>
      <point x="239" y="335" type="line"/>
      <point x="84" y="490" type="line"/>
      <point x="134" y="540" type="line"/>
      <point x="289" y="385" type="line"/>
      <point x="444" y="540" type="line"/>
      <point x="494" y="490" type="line"/>
      <point x="339" y="335" type="line"/>
      <point x="494" y="180" type="line"/>
      <point x="444" y="130" type="line"/>
      <point x="289" y="285" type="line"/>
      <point x="134" y="130" type="line"/>
    </contour>
  </outline>
</glyph>
<glyph name="eth" format="2">
  <advance width="584"/>
  <unicode hex="00F0"/>
  <outline>
    <contour>
      <point x="72" y="150" type="qcurve" smooth="yes"/>
      <point x="72" y="300" type="line" smooth="yes"/>
      <point x="72" y="450"/>
      <point x="222" y="450" type="qcurve" smooth="yes"/>
      <point x="402" y="450" type="line"/>
      <point x="324" y="573" type="line"/>
      <point x="215" y="521" type="line"/>
      <point x="189" y="577" type="line"/>
      <point x="291" y="626" type="line"/>
      <point x="238" y="709" type="line"/>
      <point x="302" y="750" type="line"/>
      <point x="360" y="659" type="line"/>
      <point x="466" y="709" type="line"/>
      <point x="492" y="653" type="line"/>
      <point x="393" y="606" type="line"/>
      <point x="478" y="471" type="line" smooth="yes"/>
      <point x="512" y="417"/>
      <point x="512" y="364" type="qcurve" smooth="yes"/>
      <point x="512" y="150" type="line" smooth="yes"/>
      <point x="512" y="0"/>
      <point x="362" y="0" type="qcurve" smooth="yes"/>
      <point x="222" y="0" type="line" smooth="yes"/>
      <point x="72" y="0"/>
    </contour>
    <contour>
      <point x="152" y="140" type="line" smooth="yes"/>
      <point x="152" y="70"/>
      <point x="222" y="70" type="qcurve" smooth="yes"/>
      <point x="362" y="70" type="line" smooth="yes"/>
      <point x="432" y="70"/>
      <point x="432" y="140" type="qcurve" smooth="yes"/>
      <point x="432" y="380" type="line"/>
      <point x="222" y="380" type="line" smooth="yes"/>
      <point x="152" y="380"/>
      <point x="152" y="310" type="qcurve" smooth="yes"/>
    </contour>
  </outline>
</glyph>
<glyph name="lslash" format="2">
  <advance width="276"/>
  <unicode hex="0142"/>
  <outline>
    <contour>
      <point x="3" y="335" type="line"/>
      <point x="86" y="383" type="line"/>
      <point x="86" y="740" type="line"/>
      <point x="166" y="740" type="line"/>
      <point x="166" y="429" type="line"/>
      <point x="240" y="472" type="line"/>
      <point x="271" y="418" type="line"/>
      <point x="166" y="358" type="line"/>
      <point x="166" y="134" type="line" smooth="yes"/>
      <point x="166" y="66"/>
      <point x="236" y="62" type="qcurve"/>
      <point x="236" y="-8" type="line"/>
      <point x="86" y="-8"/>
      <point x="86" y="142" type="qcurve" smooth="yes"/>
      <point x="86" y="312" type="line"/>
      <point x="34" y="281" type="line"/>
    </contour>
  </outline>
</glyph>
<glyph name="oe" format="2">
  <advance width="914"/>
  <unicode hex="0153"/>
  <outline>
    <contour>
      <point x="72" y="150" type="qcurve" smooth="yes"/>
      <point x="72" y="370" type="line" smooth="yes"/>
      <point x="72" y="520"/>
      <point x="222" y="520" type="qcurve" smooth="yes"/>
      <point x="352" y="520" type="line" smooth="yes"/>
      <point x="422" y="520"/>
      <point x="462" y="480" type="qcurve"/>
      <point x="502" y="520"/>
      <point x="572" y="520" type="qcurve" smooth="yes"/>
      <point x="692" y="520" type="line" smooth="yes"/>
      <point x="842" y="520"/>
      <point x="842" y="370" type="qcurve" smooth="yes"/>
      <point x="842" y="226" type="line"/>
      <point x="502" y="226" type="line"/>
      <point x="502" y="140" type="line" smooth="yes"/>
      <point x="502" y="70"/>
      <point x="572" y="70" type="qcurve" smooth="yes"/>
      <point x="822" y="70" type="line"/>
      <point x="822" y="30" type="line"/>
      <point x="782" y="0" type="line"/>
      <point x="572" y="0" type="line" smooth="yes"/>
      <point x="502" y="0"/>
      <point x="462" y="40" type="qcurve"/>
      <point x="422" y="0"/>
      <point x="352" y="0" type="qcurve" smooth="yes"/>
      <point x="222" y="0" type="line" smooth="yes"/>
      <point x="72" y="0"/>
    </contour>
    <contour>
      <point x="152" y="140" type="line" smooth="yes"/>
      <point x="152" y="70"/>
      <point x="222" y="70" type="qcurve" smooth="yes"/>
      <point x="352" y="70" type="line" smooth="yes"/>
      <point x="422" y="70"/>
      <point x="422" y="140" type="qcurve" smooth="yes"/>
      <point x="422" y="380" type="line" smooth="yes"/>
      <point x="422" y="450"/>
      <point x="352" y="450" type="qcurve" smooth="yes"/>
      <point x="222" y="450" type="line" smooth="yes"/>
      <point x="152" y="450"/>
      <point x="152" y="380" type="qcurve" smooth="yes"/>
    </contour>
    <contour>
      <point x="502" y="296" type="line"/>
      <point x="762" y="296" type="line"/>
      <point x="762" y="380" type="line" smooth="yes"/>
      <point x="762" y="450"/>
      <point x="692" y="450" type="qcurve" smooth="yes"/>
      <point x="572" y="450" type="line" smooth="yes"/>
      <point x="502" y="450"/>
      <point x="502" y="380" type="qcurve" smooth="yes"/>
    </contour>
  </outline>
</glyph>
<glyph name="florin" format="2">
  <advance width="570"/>
  <unicode hex="0192"/>
  <outline>
    <contour>
      <point x="40" y="-70" type="line"/>
      <point x="120" y="-70" type="line" smooth="yes"/>
      <point x="190" y="-70"/>
      <point x="190" y="0" type="qcurve" smooth="yes"/>
      <point x="190" y="590" type="line" smooth="yes"/>
      <point x="190" y="740"/>
      <point x="340" y="740" type="qcurve" smooth="yes"/>
      <point x="430" y="740" type="line"/>
      <point x="470" y="710" type="line"/>
      <point x="470" y="670" type="line"/>
      <point x="340" y="670" type="line" smooth="yes"/>
      <point x="270" y="670"/>
      <point x="270" y="600" type="qcurve" smooth="yes"/>
      <point x="270" y="520" type="line"/>
      <point x="460" y="520" type="line"/>
      <point x="460" y="450" type="line"/>
      <point x="270" y="450" type="line"/>
      <point x="270" y="10" type="line" smooth="yes"/>
      <point x="270" y="-140"/>
      <point x="120" y="-140" type="qcurve" smooth="yes"/>
      <point x="80" y="-140" type="line"/>
      <point x="40" y="-110" type="line"/>
    </contour>
  </outline>
</glyph>
<glyph name="uni0303" format="2">
  <advance width="0"/>
  <unicode hex="0303"/>
  <outline>
    <contour>
      <point x="-441" y="638" type="line"/>
      <point x="-387" y="692" type="line" smooth="yes"/>
      <point x="-365" y="714"/>
      <point x="-307" y="714"/>
      <point x="-285" y="692" type="qcurve" smooth="yes"/>
      <point x="-253" y="660" type="line" smooth="yes"/>
      <point x="-245" y="652"/>
      <point x="-227" y="652"/>
      <point x="-219" y="660" type="qcurve" smooth="yes"/>
      <point x="-170" y="709" type="line"/>
      <point x="-131" y="670" type="line"/>
      <point x="-185" y="616" type="line" smooth="yes"/>
      <point x="-207" y="594"/>
      <point x="-265" y="594"/>
      <point x="-287" y="616" type="qcurve" smooth="yes"/>
      <point x="-319" y="648" type="line" smooth="yes"/>
      <point x="-327" y="656"/>
      <point x="-345" y="656"/>
      <point x="-353" y="648" type="qcurve" smooth="yes"/>
      <point x="-402" y="599" type="line"/>
    </contour>
  </outline>
</glyph>
<glyph name="uni0304" format="2">
  <advance width="0"/>
  <unicode hex="0304"/>
  <outline>
    <contour>
      <point x="-416" y="625" type="line"/>
      <point x="-416" y="689" type="line"/>
      <point x="-156" y="689" type="line"/>
      <point x="-156" y="625" type="line"/>
    </contour>
  </outline>
</glyph>
<glyph name="uni0306" format="2">
  <advance width="0"/>
  <unicode hex="0306"/>
  <outline>
    <contour>
      <point x="-411" y="670" type="qcurve" smooth="yes"/>
      <point x="-411" y="728" type="line"/>
      <point x="-357" y="728" type="line"/>
      <point x="-357" y="670" type="line" smooth="yes"/>
      <point x="-357" y="652"/>
      <point x="-339" y="652" type="qcurve" smooth="yes"/>
      <point x="-233" y="652" type="line" smooth="yes"/>
      <point x="-215" y="652"/>
      <point x="-215" y="670" type="qcurve" smooth="yes"/>
      <point x="-215" y="728" type="line"/>
      <point x="-161" y="728" type="line"/>
      <point x="-161" y="670" type="line" smooth="yes"/>
      <point x="-161" y="598"/>
      <point x="-233" y="598" type="qcurve" smooth="yes"/>
      <point x="-339" y="598" type="line" smooth="yes"/>
      <point x="-411" y="598"/>
    </contour>
  </outline>
</glyph>
<glyph name="uni0327" format="2">
  <advance width="0"/>
  <unicode hex="0327"/>
  <outline>
    <contour>
      <point x="-396" y="-122" type="line"/>
      <point x="-296" y="-122" type="line" smooth="yes"/>
      <point x="-264" y="-122"/>
      <point x="-264" y="-90" type="qcurve" smooth="yes"/>
      <point x="-264" y="35" type="line"/>
      <point x="-200" y="35" type="line"/>
      <point x="-200" y="-80" type="line" smooth="yes"/>
      <point x="-200" y="-180"/>
      <point x="-300" y="-180" type="qcurve" smooth="yes"/>
      <point x="-364" y="-180" type="line"/>
      <point x="-396" y="-155" type="line"/>
    </contour>
  </outline>
</glyph>
<glyph name="quoteleft" format="2">
  <advance width="260"/>
  <unicode hex="2018"/>
  <outline>
    <contour>
      <point x="60" y="514" type="line"/>
      <point x="150" y="750" type="line"/>
      <point x="210" y="735" type="line"/>
      <point x="151" y="500" type="line"/>
      <point x="69" y="500" type="line"/>
    </contour>
  </outline>
</glyph>
<glyph name="quoteright" format="2">
  <advance width="260"/>
  <unicode hex="2019"/>
  <outline>
    <contour>
      <point x="56" y="505" type="line"/>
      <point x="115" y="740" type="line"/>
      <point x="197" y="740" type="line"/>
      <point x="206" y="726" type="line"/>
      <point x="116" y="490" type="line"/>
    </contour>
  </outline>
</glyph>
<glyph name="quotesinglbase" format="2">
  <advance width="260"/>
  <unicode hex="201A"/>
  <outline>
    <contour>
      <point x="32" y="-125" type="line"/>
      <point x="91" y="110" type="line"/>
      <point x="173" y="110" type="line"/>
      <point x="182" y="96" type="line"/>
      <point x="92" y="-140" type="line"/>
    </contour>
  </outline>
</glyph>
<glyph name="daggerdbl" format="2">
  <advance width="490"/>
  <unicode hex="2021"/>
  <outline>
    <contour>
      <point x="50" y="100" type="line"/>
      <point x="50" y="170" type="line"/>
      <point x="208" y="170" type="line"/>
      <point x="208" y="420" type="line"/>
      <point x="50" y="420" type="line"/>
      <point x="50" y="490" type="line"/>
      <point x="208" y="490" type="line"/>
      <point x="208" y="690" type="line"/>
      <point x="282" y="690" type="line"/>
      <point x="282" y="490" type="line"/>
      <point x="440" y="490" type="line"/>
      <point x="440" y="420" type="line"/>
      <point x="282" y="420" type="line"/>
      <point x="282" y="170" type="line"/>
      <point x="440" y="170" type="line"/>
      <point x="440" y="100" type="line"/>
      <point x="282" y="100" type="line"/>
      <point x="282" y="-100" type="line"/>
      <point x="208" y="-100" type="line"/>
      <point x="208" y="100" type="line"/>
    </contour>
  </outline>
</glyph>
<glyph name="bullet" format="2">
  <advance width="360"/>
  <unicode hex="2022"/>
  <outline>
    <contour>
      <point x="80" y="260" type="line"/>
      <point x="80" y="460" type="line"/>
      <point x="280" y="460" type="line"/>
      <point x="280" y="260" type="line"/>
    </contour>
  </outline>
</glyph>
<glyph name="guilsinglright" format="2">
  <advance width="300"/>
  <unicode hex="203A"/>
  <outline>
    <contour>
      <point x="40" y="132" type="line"/>
      <point x="181" y="315" type="line"/>
      <point x="40" y="498" type="line"/>
      <point x="91" y="540" type="line"/>
      <point x="270" y="315" type="line"/>
      <point x="91" y="90" type="line"/>
    </contour>
  </outline>
</glyph>
<glyph name="uni2070" format="2">
  <advance width="360"/>
  <unicode hex="2070"/>
  <outline>
    <contour>
      <point x="40" y="380" type="qcurve" smooth="yes"/>
      <point x="40" y="590" type="line" smooth="yes"/>
      <point x="40" y="690"/>
      <point x="140" y="690" type="qcurve" smooth="yes"/>
      <point x="220" y="690" type="line" smooth="yes"/>
      <point x="320" y="690"/>
      <point x="320" y="590" type="qcurve" smooth="yes"/>
      <point x="320" y="380" type="line" smooth="yes"/>
      <point x="320" y="280"/>
      <point x="220" y="280" type="qcurve" smooth="yes"/>
      <point x="140" y="280" type="line" smooth="yes"/>
      <point x="40" y="280"/>
    </contour>
    <contour>
      <point x="104" y="370" type="line" smooth="yes"/>
      <point x="104" y="338"/>
      <point x="136" y="338" type="qcurve" smooth="yes"/>
      <point x="224" y="338" type="line" smooth="yes"/>
      <point x="256" y="338"/>
      <point x="256" y="370" type="qcurve" smooth="yes"/>
      <point x="256" y="600" type="line" smooth="yes"/>
      <point x="256" y="632"/>
      <point x="224" y="632" type="qcurve" smooth="yes"/>
      <point x="136" y="632" type="line" smooth="yes"/>
      <point x="104" y="632"/>
      <point x="104" y="600" type="qcurve" smooth="yes"/>
    </contour>
  </outline>
</glyph>
<glyph name="uni2074" format="2">
  <advance width="360"/>
  <unicode hex="2074"/>
  <outline>
    <contour>
      <point x="40" y="352" type="line"/>
      <point x="40" y="405" type="line"/>
      <point x="174" y="690" type="line"/>
      <point x="230" y="690" type="line"/>
      <point x="238" y="676" type="line"/>
      <point x="113" y="410" type="line"/>
      <point x="256" y="410" type="line"/>
      <point x="256" y="540" type="line"/>
      <point x="320" y="540" type="line"/>
      <point x="320" y="280" type="line"/>
      <point x="256" y="280" type="line"/>
      <point x="256" y="352" type="line"/>
    </contour>
  </outline>
</glyph>
<glyph name="Euro" format="2">
  <advance width="578"/>
  <unicode hex="20AC"/>
  <outline>
    <contour>
      <point x="34" y="245" type="line"/>
      <point x="34" y="307" type="line"/>
      <point x="104" y="307" type="line"/>
      <point x="104" y="383" type="line"/>
      <point x="34" y="383" type="line"/>
      <point x="34" y="445" type="line"/>
      <point x="104" y="445" type="line"/>
      <point x="104" y="537" type="line" smooth="yes"/>
      <point x="104" y="690"/>
      <point x="257" y="690" type="qcurve" smooth="yes"/>
      <point x="489" y="690" type="line"/>
      <point x="534" y="655" type="line"/>
      <point x="534" y="614" type="line"/>
      <point x="256" y="614" type="line" smooth="yes"/>
      <point x="188" y="614"/>
      <point x="188" y="546" type="qcurve" smooth="yes"/>
      <point x="188" y="445" type="line"/>
      <point x="460" y="445" type="line"/>
      <point x="460" y="383" type="line"/>
      <point x="188" y="383" type="line"/>
      <point x="188" y="307" type="line"/>
      <point x="416" y="307" type="line"/>
      <point x="416" y="245" type="line"/>
      <point x="188" y="245" type="line"/>
      <point x="188" y="144" type="line" smooth="yes"/>
      <point x="188" y="76"/>
      <point x="256" y="76" type="qcurve" smooth="yes"/>
      <point x="534" y="76" type="line"/>
      <point x="534" y="35" type="line"/>
      <point x="489" y="0" type="line"/>
      <point x="257" y="0" type="line" smooth="yes"/>
      <point x="104" y="0"/>
      <point x="104" y="153" type="qcurve" smooth="yes"/>
      <point x="104" y="245" type="line"/>
    </contour>
  </outline>
</glyph>
<glyph name="uni20BA" format="2">
  <advance width="578"/>
  <unicode hex="20BA"/>
  <outline>
    <contour>
      <point x="24" y="304" type="line"/>
      <point x="124" y="344" type="line"/>
      <point x="124" y="417" type="line"/>
      <point x="47" y="386" type="line"/>
      <point x="24" y="444" type="line"/>
      <point x="124" y="484" type="line"/>
      <point x="124" y="690" type="line"/>
      <point x="208" y="690" type="line"/>
      <point x="208" y="518" type="line"/>
      <point x="398" y="594" type="line"/>
      <point x="421" y="536" type="line"/>
      <point x="208" y="451" type="line"/>
      <point x="208" y="378" type="line"/>
      <point x="398" y="454" type="line"/>
      <point x="421" y="396" type="line"/>
      <point x="208" y="311" type="line"/>
      <point x="208" y="76" type="line"/>
      <point x="279" y="76" type="line" smooth="yes"/>
      <point x="444" y="76"/>
      <point x="444" y="241" type="qcurve" smooth="yes"/>
      <point x="444" y="300" type="line"/>
      <point x="524" y="300" type="line"/>
      <point x="524" y="250" type="line" smooth="yes"/>
      <point x="524" y="0"/>
      <point x="274" y="0" type="qcurve" smooth="yes"/>
      <point x="124" y="0" type="line"/>
      <point x="124" y="277" type="line"/>
      <point x="47" y="246" type="line"/>
    </contour>
  </outline>
</glyph>
<glyph name="uni20BD" format="2">
  <advance width="578"/>
  <unicode hex="20BD"/>
  <outline>
    <contour>
      <point x="44" y="174" type="line"/>
      <point x="44" y="240" type="line"/>
      <point x="94" y="240" type="line"/>
      <point x="94" y="310" type="line"/>
      <point x="44" y="310" type="line"/>
      <point x="44" y="380" type="line"/>
      <point x="94" y="380" type="line"/>
      <point x="94" y="690" type="line"/>
      <point x="371" y="690" type="line" smooth="yes"/>
      <point x="524" y="690"/>
      <point x="524" y="537" type="qcurve" smooth="yes"/>
      <point x="524" y="463" type="line" smooth="yes"/>
      <point x="524" y="310"/>
      <point x="371" y="310" type="qcurve" smooth="yes"/>
      <point x="178" y="310" type="line"/>
      <point x="178" y="240" type="line"/>
      <point x="398" y="240" type="line"/>
      <point x="398" y="174" type="line"/>
      <point x="178" y="174" type="line"/>
      <point x="178" y="0" type="line"/>
      <point x="94" y="0" type="line"/>
      <point x="94" y="174" type="line"/>
    </contour>
    <contour>
      <point x="178" y="380" type="line"/>
      <point x="372" y="380" type="line" smooth="yes"/>
      <point x="440" y="380"/>
      <point x="440" y="448" type="qcurve" smooth="yes"/>
      <point x="440" y="546" type="line" smooth="yes"/>
      <point x="440" y="614"/>
      <point x="372" y="614" type="qcurve" smooth="yes"/>
      <point x="178" y="614" type="line"/>
    </contour>
  </outline>
</glyph>
<glyph name="trademark" format="2">
  <advance width="782"/>
  <unicode hex="2122"/>
  <outline>
    <contour>
      <point x="20" y="636" type="line"/>
      <point x="20" y="690" type="line"/>
      <point x="304" y="690" type="line"/>
      <point x="304" y="636" type="line"/>
      <point x="192" y="636" type="line"/>
      <point x="192" y="340" type="line"/>
      <point x="132" y="340" type="line"/>
      <point x="132" y="636" type="line"/>
    </contour>
    <contour>
      <point x="354" y="340" type="line"/>
      <point x="354" y="690" type="line"/>
      <point x="429" y="690" type="line"/>
      <point x="538" y="457" type="line"/>
      <point x="647" y="690" type="line"/>
      <point x="722" y="690" type="line"/>
      <point x="722" y="340" type="line"/>
      <point x="662" y="340" type="line"/>
      <point x="662" y="591" type="line"/>
      <point x="565" y="384" type="line"/>
      <point x="511" y="384" type="line"/>
      <point x="414" y="591" type="line"/>
      <point x="414" y="340" type="line"/>
    </contour>
  </outline>
</glyph>
<glyph name="Omega" format="2">
  <advance width="700"/>
  <unicode hex="2126"/>
  <outline>
    <contour>
      <point x="60" y="0" type="line"/>
      <point x="60" y="76" type="line"/>
      <point x="188" y="76" type="line"/>
      <point x="113" y="176" type="line" smooth="yes"/>
      <point x="80" y="220"/>
      <point x="80" y="276" type="qcurve" smooth="yes"/>
      <point x="80" y="537" type="line" smooth="yes"/>
      <point x="80" y="690"/>
      <point x="233" y="690" type="qcurve" smooth="yes"/>
      <point x="467" y="690" type="line" smooth="yes"/>
      <point x="620" y="690"/>
      <point x="620" y="537" type="qcurve" smooth="yes"/>
      <point x="620" y="276" type="line" smooth="yes"/>
      <point x="620" y="220"/>
      <point x="587" y="176" type="qcurve" smooth="yes"/>
      <point x="512" y="76" type="line"/>
      <point x="640" y="76" type="line"/>
      <point x="640" y="0" type="line"/>
      <point x="410" y="0" type="line"/>
      <point x="410" y="68" type="line"/>
      <point x="512" y="204" type="line" smooth="yes"/>
      <point x="536" y="236"/>
      <point x="536" y="276" type="qcurve" smooth="yes"/>
      <point x="536" y="546" type="line" smooth="yes"/>
      <point x="536" y="614"/>
      <point x="468" y="614" type="qcurve" smooth="yes"/>
      <point x="232" y="614" type="line" smooth="yes"/>
      <point x="164" y="614"/>
      <point x="164" y="546" type="qcurve" smooth="yes"/>
      <point x="164" y="276" type="line" smooth="yes"/>
      <point x="164" y="236"/>
      <point x="188" y="204" type="qcurve" smooth="yes"/>
      <point x="290" y="68" type="line"/>
      <point x="290" y="0" type="line"/>
    </contour>
  </outline>
</glyph>
<glyph name="partialdiff" format="2">
  <advance width="578"/>
  <unicode hex="2202"/>
  <outline>
    <contour>
      <point x="72" y="150" type="qcurve" smooth="yes"/>
      <point x="72" y="310" type="line" smooth="yes"/>
      <point x="72" y="460"/>
      <point x="222" y="460" type="qcurve" smooth="yes"/>
      <point x="422" y="460" type="line"/>
      <point x="422" y="528" type="line" smooth="yes"/>
      <point x="422" y="670"/>
      <point x="280" y="670" type="qcurve" smooth="yes"/>
      <point x="116" y="670" type="line"/>
      <point x="116" y="710" type="line"/>
      <point x="156" y="740" type="line"/>
      <point x="278" y="740" type="line" smooth="yes"/>
      <point x="502" y="740"/>
      <point x="502" y="516" type="qcurve" smooth="yes"/>
      <point x="502" y="150" type="line" smooth="yes"/>
      <point x="502" y="0"/>
      <point x="352" y="0" type="qcurve" smooth="yes"/>
      <point x="222" y="0" type="line" smooth="yes"/>
      <point x="72" y="0"/>
    </contour>
    <contour>
      <point x="152" y="140" type="line" smooth="yes"/>
      <point x="152" y="70"/>
      <point x="222" y="70" type="qcurve" smooth="yes"/>
      <point x="352" y="70" type="line" smooth="yes"/>
      <point x="422" y="70"/>
      <point x="422" y="140" type="qcurve" smooth="yes"/>
      <point x="422" y="390" type="line"/>
      <point x="222" y="390" type="line" smooth="yes"/>
      <point x="152" y="390"/>
      <point x="152" y="320" type="qcurve" smooth="yes"/>
    </contour>
  </outline>
</glyph>
<glyph name="Delta" format="2">
  <advance width="640"/>
  <unicode hex="2206"/>
  <outline>
    <contour>
      <point x="20" y="18" type="line"/>
      <point x="251" y="690" type="line"/>
      <point x="389" y="690" type="line"/>
      <point x="620" y="18" type="line"/>
      <point x="608" y="0" type="line"/>
      <point x="32" y="0" type="line"/>
    </contour>
    <contour>
      <point x="125" y="76" type="line"/>
      <point x="515" y="76" type="line"/>
      <point x="332" y="614" type="line"/>
      <point x="308" y="614" type="line"/>
    </contour>
  </outline>
</glyph>
<glyph name="minus" format="2">
  <advance width="578"/>
  <unicode hex="2212"/>
  <outline>
    <contour>
      <point x="64" y="300" type="line"/>
      <point x="64" y="370" type="line"/>
      <point x="514" y="370" type="line"/>
      <point x="514" y="300" type="line"/>
    </contour>
  </outline>
</glyph>
<glyph name="radical" format="2">
  <advance width="580"/>
  <unicode hex="221A"/>
  <outline>
    <contour>
      <point x="20" y="336" type="line"/>
      <point x="20" y="400" type="line"/>
      <point x="167" y="400" type="line"/>
      <point x="273" y="84" type="line"/>
      <point x="517" y="790" type="line"/>
      <point x="580" y="768" type="line"/>
      <point x="308" y="-10" type="line"/>
      <point x="234" y="-10" type="line"/>
      <point x="115" y="336" type="line"/>
    </contour>
  </outline>
</glyph>
<glyph name="infinity" format="2">
  <advance width="610"/>
  <unicode hex="221E"/>
  <outline>
    <contour>
      <point x="40" y="285" type="qcurve" smooth="yes"/>
      <point x="40" y="385" type="line" smooth="yes"/>
      <point x="40" y="485"/>
      <point x="140" y="485" type="qcurve" smooth="yes"/>
      <point x="233" y="485" type="line" smooth="yes"/>
      <point x="271" y="485"/>
      <point x="305" y="451" type="qcurve"/>
      <point x="339" y="485"/>
      <point x="377" y="485" type="qcurve" smooth="yes"/>
      <point x="470" y="485" type="line" smooth="yes"/>
      <point x="570" y="485"/>
      <point x="570" y="385" type="qcurve" smooth="yes"/>
      <point x="570" y="285" type="line" smooth="yes"/>
      <point x="570" y="185"/>
      <point x="470" y="185" type="qcurve" smooth="yes"/>
      <point x="377" y="185" type="line" smooth="yes"/>
      <point x="339" y="185"/>
      <point x="305" y="219" type="qcurve"/>
      <point x="271" y="185"/>
      <point x="233" y="185" type="qcurve" smooth="yes"/>
      <point x="140" y="185" type="line" smooth="yes"/>
      <point x="40" y="185"/>
    </contour>
    <contour>
      <point x="104" y="275" type="line" smooth="yes"/>
      <point x="104" y="243"/>
      <point x="136" y="243" type="qcurve" smooth="yes"/>
      <point x="241" y="243" type="line" smooth="yes"/>
      <point x="273" y="243"/>
      <point x="273" y="275" type="qcurve" smooth="yes"/>
      <point x="273" y="395" type="line" smooth="yes"/>
      <point x="273" y="427"/>
      <point x="241" y="427" type="qcurve" smooth="yes"/>
      <point x="136" y="427" type="line" smooth="yes"/>
      <point x="104" y="427"/>
      <point x="104" y="395" type="qcurve" smooth="yes"/>
    </contour>
    <contour>
      <point x="337" y="275" type="line" smooth="yes"/>
      <point x="337" y="243"/>
      <point x="369" y="243" type="qcurve" smooth="yes"/>
      <point x="474" y="243" type="line" smooth="yes"/>
      <point x="506" y="243"/>
      <point x="506" y="275" type="qcurve" smooth="yes"/>
      <point x="506" y="395" type="line" smooth="yes"/>
      <point x="506" y="427"/>
      <point x="474" y="427" type="qcurve" smooth="yes"/>
      <point x="369" y="427" type="line" smooth="yes"/>
      <point x="337" y="427"/>
      <point x="337" y="395" type="qcurve" smooth="yes"/>
    </contour>
  </outline>
</glyph>
<glyph name="notequal" format="2">
  <advance width="578"/>
  <unicode hex="2260"/>
  <outline>
    <contour>
      <point x="64" y="190" type="line"/>
      <point x="64" y="260" type="line"/>
      <point x="215" y="260" type="line"/>
      <point x="291" y="410" type="line"/>
      <point x="64" y="410" type="line"/>
      <point x="64" y="480" type="line"/>
      <point x="327" y="480" type="line"/>
      <point x="390" y="605" type="line"/>
      <point x="447" y="576" type="line"/>
      <point x="399" y="480" type="line"/>
      <point x="514" y="480" type="line"/>
      <point x="514" y="410" type="line"/>
      <point x="363" y="410" type="line"/>
      <point x="287" y="260" type="line"/>
      <point x="514" y="260" type="line"/>
      <point x="514" y="190" type="line"/>
      <point x="251" y="190" type="line"/>
      <point x="188" y="65" type="line"/>
      <point x="131" y="94" type="line"/>
      <point x="179" y="190" type="line"/>
    </contour>
  </outline>
</glyph>
<glyph name="uni0301.cap" format="2">
  <advance width="0"/>
  <outline>
    <contour>
      <point x="-382" y="773" type="line"/>
      <point x="-254" y="918" type="line"/>
      <point x="-202" y="869" type="line"/>
      <point x="-339" y="732" type="line"/>
    </contour>
  </outline>
</glyph>
<glyph name="uni0304.cap" format="2">
  <advance width="0"/>
  <outline>
    <contour>
      <point x="-450" y="785" type="line"/>
      <point x="-450" y="849" type="line"/>
      <point x="-190" y="849" type="line"/>
      <point x="-190" y="785" type="line"/>
    </contour>
  </outline>
</glyph>
<glyph name="uni0307.cap" format="2">
  <advance width="0"/>
  <outline>
    <contour>
      <point x="-362" y="774" type="line"/>
      <point x="-362" y="866" type="line"/>
      <point x="-278" y="866" type="line"/>
      <point x="-278" y="774" type="line"/>
    </contour>
  </outline>
</glyph>
<glyph name="uni030A.cap" format="2">
  <advance width="0"/>
  <outline>
    <contour>
      <point x="-422" y="802" type="qcurve" smooth="yes"/>
      <point x="-422" y="858" type="line" smooth="yes"/>
      <point x="-422" y="928"/>
      <point x="-352" y="928" type="qcurve" smooth="yes"/>
      <point x="-288" y="928" type="line" smooth="yes"/>
      <point x="-218" y="928"/>
      <point x="-218" y="858" type="qcurve" smooth="yes"/>
      <point x="-218" y="802" type="line" smooth="yes"/>
      <point x="-218" y="732"/>
      <point x="-288" y="732" type="qcurve" smooth="yes"/>
      <point x="-352" y="732" type="line" smooth="yes"/>
      <point x="-422" y="732"/>
    </contour>
    <contour>
      <point x="-370" y="798" type="line" smooth="yes"/>
      <point x="-370" y="778"/>
      <point x="-350" y="778" type="qcurve" smooth="yes"/>
      <point x="-290" y="778" type="line" smooth="yes"/>
      <point x="-270" y="778"/>
      <point x="-270" y="798" type="qcurve" smooth="yes"/>
      <point x="-270" y="862" type="line" smooth="yes"/>
      <point x="-270" y="882"/>
      <point x="-290" y="882" type="qcurve" smooth="yes"/>
      <point x="-350" y="882" type="line" smooth="yes"/>
      <point x="-370" y="882"/>
      <point x="-370" y="862" type="qcurve" smooth="yes"/>
    </contour>
  </outline>
</glyph>
<glyph name="uni030C.alt" format="2">
  <advance width="0"/>
  <outline>
    <contour>
      <point x="-52" y="592" type="line"/>
      <point x="-18" y="760" type="line"/>
      <point x="43" y="760" type="line"/>
      <point x="52" y="746" type="line"/>
      <point x="-3" y="580" type="line"/>
    </contour>
  </outline>
</glyph>
